<svg width="40" height="40" viewBox="0 0 40 40" fill="none" xmlns="http://www.w3.org/2000/svg">
<path fill-rule="evenodd" clip-rule="evenodd" d="M40 20C40 31.0457 31.0457 40 20 40C8.95431 40 0 31.0457 0 20C0 8.95431 8.95431 0 20 0C31.0457 0 40 8.95431 40 20ZM13 9V10C13 9 13.0007 9 13.0015 9L13.003 9.00001L13.006 9.00002L13.0125 9.00008L13.0264 9.00032C13.0361 9.00055 13.0469 9.00092 13.0585 9.00146C13.0819 9.00256 13.1092 9.00439 13.1402 9.00729C13.2024 9.01312 13.2796 9.02328 13.3718 9.04057C13.5564 9.07518 13.7996 9.13811 14.1011 9.25117C14.6348 9.45129 15.3488 9.80763 16.2437 10.4404C18.7279 10.0199 21.2721 10.0199 23.7563 10.4404C24.6512 9.80763 25.3652 9.45129 25.8989 9.25117C26.2004 9.13811 26.4436 9.07518 26.6282 9.04057C26.7204 9.02328 26.7976 9.01312 26.8598 9.00729C26.8908 9.00439 26.9181 9.00256 26.9415 9.00146C26.9532 9.00092 26.9639 9.00055 26.9736 9.00032L26.9875 9.00008L26.994 9.00002L26.997 9.00001L26.9985 9C26.9993 9 27 9 27 10V9C27.4612 9 27.8625 9.31536 27.9716 9.76344C28.2541 10.9236 28.2855 12.1287 28.0659 13.2989C28.7523 14.4177 29.0776 15.7158 28.9999 17.0318C28.9846 20.5556 26.4304 22.7234 23.6188 23.3269C23.9599 24.1846 24.0943 25.1189 24 26.0527V30C24 30.5523 23.5523 31 23 31C22.4477 31 22 30.5523 22 30V26C22 25.9906 22.0001 25.9812 22.0004 25.9718C22.0012 25.9443 22.0031 25.9169 22.0061 25.8896C22.1162 24.8979 21.8319 23.9026 21.2144 23.1188C20.9774 22.8179 20.9331 22.408 21.1003 22.0634C21.2676 21.7188 21.617 21.5 22 21.5C24.6262 21.5 27 19.7847 27 17C27 16.9787 27.0007 16.9574 27.002 16.9361C27.0674 15.9154 26.7821 14.9137 26.1868 14.082C26.0173 13.8452 25.9595 13.5463 26.0284 13.2634C26.1853 12.6191 26.2405 11.9566 26.1941 11.2995C25.8002 11.4894 25.2688 11.7984 24.6 12.3C24.3752 12.4686 24.09 12.5348 23.8139 12.4825C21.2969 12.0058 18.7031 12.0058 16.1861 12.4825C15.91 12.5348 15.6248 12.4686 15.4 12.3C14.7237 11.7928 14.1879 11.4825 13.7927 11.2931C13.742 11.9469 13.8003 12.6061 13.9676 13.2476C14.0426 13.5351 13.9859 13.8411 13.8128 14.0826C13.2194 14.9104 12.9314 15.9184 12.9979 16.9348L12.9991 16.9587C12.9997 16.9725 13 16.9862 13 17C13 19.7847 15.3738 21.5 18 21.5C18.384 21.5 18.734 21.7198 18.9008 22.0657C19.0675 22.4115 19.0215 22.8223 18.7824 23.1227C18.4732 23.5113 18.2452 23.9528 18.1121 24.4226C17.9799 24.8894 17.9392 25.3814 17.9915 25.8676C17.9984 25.9191 18.0011 25.9706 18 26.0217V30C18 30.5523 17.5523 31 17 31C16.4477 31 16 30.5523 16 30V27.4013C15.332 27.5617 14.7209 27.5974 14.1542 27.5227C13.2046 27.3975 12.4912 26.9772 11.9335 26.5305C11.6602 26.3115 11.4172 26.0803 11.2088 25.8784L11.1077 25.7802C10.9356 25.613 10.7933 25.4747 10.6493 25.3503C10.3084 25.0556 10.1346 25 10 25C9.44772 25 9 24.5523 9 24C9 23.4477 9.44772 23 10 23C10.8654 23 11.5028 23.4444 11.9573 23.8372C12.1495 24.0034 12.3406 24.1893 12.5114 24.3554L12.6004 24.4419C12.8033 24.6385 12.9892 24.8135 13.184 24.9695C13.5625 25.2728 13.9423 25.4775 14.4155 25.5398C14.7901 25.5892 15.2905 25.558 15.9707 25.3301C15.9813 24.8402 16.0535 24.3515 16.1879 23.8774C16.241 23.6899 16.3037 23.5058 16.3755 23.3257C13.5663 22.7205 11.0157 20.5535 11.0001 17.0325C10.9211 15.7211 11.2475 14.4208 11.9295 13.3061C11.6936 12.1283 11.7278 10.915 12.0324 9.74758C12.1473 9.30725 12.5449 9 13 9Z" fill="black"/>
</svg>
